<svg xmlns="http://www.w3.org/2000/svg" viewBox="0 0 512 512" id="scheduling">
  <path fill-rule="evenodd" d="M133.174,302.585h-35.245v35.245h35.245v-35.245h0ZM88.473,283.673h54.157c5.222,0,9.456,4.234,9.456,9.456v54.157c0,5.222-4.234,9.456-9.456,9.456h-54.157c-5.222,0-9.456-4.234-9.456-9.456v-54.157c0-5.222,4.234-9.456,9.456-9.456h0ZM133.174,202.259h-35.245v35.245h35.245v-35.245h0ZM88.473,183.347h54.157c5.222,0,9.456,4.234,9.456,9.456v54.157c0,5.222-4.234,9.456-9.456,9.456h-54.157c-5.222,0-9.456-4.234-9.456-9.456v-54.157c0-5.222,4.234-9.456,9.456-9.456h0ZM110.708,34.912h-12.517c-1.026,0-1.966.427-2.653,1.114s-1.114,1.627-1.114,2.653v39.02c0,1.026.427,1.966,1.114,2.653.687.687,1.627,1.114,2.653,1.114h12.517c1.026,0,1.966-.427,2.653-1.114.687-.687,1.114-1.627,1.114-2.653v-39.02c0-1.026-.427-1.966-1.114-2.653-.687-.687-1.627-1.114-2.653-1.114h0ZM331.553,34.912h-12.517c-1.026,0-1.966.427-2.653,1.114s-1.114,1.627-1.114,2.653v39.02c0,1.026.427,1.966,1.114,2.653.687.687,1.627,1.114,2.653,1.114h12.517c1.026,0,1.966-.427,2.653-1.114.687-.687,1.114-1.627,1.114-2.653v-39.02c0-1.026-.427-1.966-1.114-2.653-.687-.687-1.627-1.114-2.653-1.114h0ZM221.13,34.912h-12.517c-1.026,0-1.966.427-2.653,1.114s-1.114,1.627-1.114,2.653v39.02c0,1.026.427,1.966,1.114,2.653.687.687,1.627,1.114,2.653,1.114h12.517c1.026,0,1.966-.427,2.653-1.114.687-.687,1.114-1.627,1.114-2.653v-39.02c0-1.026-.427-1.966-1.114-2.653-.687-.687-1.627-1.114-2.653-1.114h0ZM243.809,66.356h52.548v11.343c0,6.246,2.549,11.919,6.655,16.024,4.106,4.106,9.778,6.655,16.024,6.655h12.517c6.246,0,11.919-2.549,16.024-6.655,4.106-4.106,6.655-9.778,6.655-16.024v-11.343h21.599c3.061,0,5.796,1.118,7.736,2.919,1.766,1.639,2.862,3.851,2.862,6.238v62.703H43.426v-62.703c0-2.388,1.096-4.6,2.862-6.238,1.94-1.801,4.675-2.919,7.736-2.919h21.488v11.343c0,6.246,2.549,11.919,6.655,16.024,4.106,4.106,9.778,6.655,16.024,6.655h12.517c6.246,0,11.918-2.549,16.024-6.655,4.106-4.106,6.655-9.778,6.655-16.024v-11.343h52.548v11.343c0,6.246,2.549,11.919,6.655,16.024,4.106,4.106,9.778,6.655,16.024,6.655h12.517c6.246,0,11.918-2.549,16.024-6.655,4.106-4.106,6.655-9.778,6.655-16.024v-11.343h0ZM395.519,273.102c-16.753-16.753-39.899-27.116-65.466-27.116s-48.713,10.363-65.466,27.116c-16.753,16.753-27.116,39.899-27.116,65.465s10.363,48.713,27.116,65.466c16.753,16.753,39.899,27.116,65.466,27.116s48.713-10.363,65.466-27.116c16.753-16.753,27.116-39.899,27.116-65.466s-10.363-48.713-27.116-65.465h0ZM330.053,227.074c30.786,0,58.66,12.48,78.837,32.657,20.177,20.177,32.657,48.05,32.657,78.836s-12.48,58.66-32.657,78.837c-20.177,20.177-48.05,32.657-78.837,32.657s-58.66-12.48-78.837-32.657c-20.177-20.177-32.657-48.05-32.657-78.837s12.48-58.66,32.657-78.836c20.177-20.177,48.05-32.657,78.837-32.657h0ZM320.597,272.044c0-5.222,4.234-9.456,9.456-9.456s9.456,4.234,9.456,9.456v57.067h36.147c5.222,0,9.456,4.234,9.456,9.456s-4.234,9.456-9.456,9.456h-45.603c-5.222,0-9.456-4.234-9.456-9.456v-66.523h0ZM428.003,240.617c25.066,25.066,40.571,59.697,40.571,97.95s-15.504,72.883-40.571,97.95c-25.067,25.067-59.697,40.571-97.95,40.571s-72.884-15.505-97.95-40.571c-25.067-25.066-40.571-59.697-40.571-97.95s15.504-72.883,40.571-97.95c25.067-25.066,59.697-40.571,97.95-40.571s72.883,15.504,97.95,40.571h0ZM209.342,237.504c2.98-3.556,6.112-6.979,9.39-10.257,4.359-4.359,8.974-8.463,13.818-12.289v-12.699h-35.245v35.245h12.037ZM405.342,200.273c13.287,7.249,25.415,16.356,36.033,26.974,28.49,28.49,46.112,67.848,46.112,111.321s-17.622,82.831-46.112,111.321c-28.49,28.49-67.848,46.112-111.321,46.112s-82.831-17.622-111.321-46.112c-13.804-13.803-25.057-30.158-32.989-48.296H54.024c-7.969,0-15.261-3.07-20.591-8.016-5.503-5.108-8.92-12.204-8.92-20.053V75.513c0-7.849,3.416-14.945,8.92-20.053,5.329-4.946,12.621-8.016,20.59-8.016h21.488v-8.765c0-6.246,2.549-11.918,6.655-16.024,4.106-4.106,9.778-6.655,16.024-6.655h12.517c6.246,0,11.918,2.549,16.024,6.655,4.106,4.106,6.655,9.778,6.655,16.024v8.765h52.548v-8.765c0-6.246,2.549-11.918,6.655-16.024,4.106-4.106,9.778-6.655,16.024-6.655h12.517c6.246,0,11.918,2.549,16.024,6.655,4.106,4.106,6.655,9.778,6.655,16.024v8.765h52.548v-8.765c0-6.246,2.549-11.918,6.655-16.024,4.106-4.106,9.778-6.655,16.024-6.655h12.517c6.246,0,11.919,2.549,16.024,6.655,4.106,4.106,6.655,9.778,6.655,16.024v8.765h21.599c7.969,0,15.261,3.07,20.59,8.016,5.503,5.108,8.92,12.204,8.92,20.053v124.76h0ZM330.053,181.134c-28.623,0-55.463,7.641-78.591,20.992v-9.324c0-5.222-4.234-9.456-9.456-9.456h-54.157c-5.222,0-9.456,4.234-9.456,9.456v54.157c0,5.222,4.234,9.456,9.456,9.456h7.884c-14.659,23.916-23.112,52.047-23.112,82.152,0,15.314,2.19,30.115,6.268,44.113H54.024c-3.061,0-5.796-1.118-7.736-2.919-1.766-1.639-2.862-3.851-2.862-6.238v-216.395h343.004v34.405c-17.503-6.716-36.51-10.398-56.376-10.398Z"></path>
</svg>
